<?xml version="1.0" encoding="UTF-8" standalone="no"?>
<svg
   viewBox="144.36 124.03 48.000002 47.999998"
   version="1.1"
   id="svg168"
   sodipodi:docname="icon-256.svg"
   inkscape:version="1.4 (e7c3feb100, 2024-10-09)"
   inkscape:export-filename="icon-512.png"
   inkscape:export-xdpi="1024"
   inkscape:export-ydpi="1024"
   width="48"
   height="48"
   xmlns:inkscape="http://www.inkscape.org/namespaces/inkscape"
   xmlns:sodipodi="http://sodipodi.sourceforge.net/DTD/sodipodi-0.dtd"
   xmlns:xlink="http://www.w3.org/1999/xlink"
   xmlns="http://www.w3.org/2000/svg"
   xmlns:svg="http://www.w3.org/2000/svg">
  <sodipodi:namedview
     id="namedview168"
     pagecolor="#181818"
     bordercolor="#000000"
     borderopacity="0.25"
     inkscape:showpageshadow="2"
     inkscape:pageopacity="0.0"
     inkscape:pagecheckerboard="0"
     inkscape:deskcolor="#111111"
     inkscape:zoom="16.229167"
     inkscape:cx="26.372272"
     inkscape:cy="25.94095"
     inkscape:window-width="1251"
     inkscape:window-height="991"
     inkscape:window-x="26"
     inkscape:window-y="23"
     inkscape:window-maximized="0"
     inkscape:current-layer="svg168" />
  <defs
     id="defs10">
    <radialGradient
       id="gradient-1"
       cx="295.98001"
       cy="256.67499"
       r="151.62"
       gradientUnits="userSpaceOnUse">
      <stop
         offset="0"
         style="stop-color:#22c55e;stop-opacity:1;"
         id="stop1" />
      <stop
         offset="0"
         style="stop-color:#22c55e;stop-opacity:1;"
         id="stop2" />
      <stop
         offset="0"
         style="stop-color:#22c55e;stop-opacity:1;"
         id="stop3" />
      <stop
         offset="0.168"
         style="stop-color:#22c55e;stop-opacity:1;"
         id="stop4" />
      <stop
         offset="0.345"
         style="stop-color:#16a34a;stop-opacity:1;"
         id="stop5" />
      <stop
         offset="0.52600002"
         style="stop-color:#15803d;stop-opacity:1;"
         id="stop6" />
      <stop
         offset="0.71100003"
         style="stop-color:#166534;stop-opacity:1;"
         id="stop7" />
      <stop
         offset="0.89600003"
         style="stop-color:#14532d;stop-opacity:1;"
         id="stop8" />
      <stop
         offset="1"
         style="stop-color:#052e16;stop-opacity:1;"
         id="stop9" />
      <stop
         offset="1"
         style="stop-color:#000"
         id="stop10" />
    </radialGradient>
    <style
       id="style10">.st0{fill:#010202}.st2{fill:url(#SVGID_00000168077688069389232310000006576656766581032631_)}.st3{fill:url(#SVGID_00000010993672839377944990000013378002174443313818_)}.st4{fill:url(#SVGID_00000150072104940218874830000004385481725600163998_)}.st5{fill:url(#SVGID_00000078045383635866317880000016522035199748541358_)}.st6{fill:url(#SVGID_00000128483474585536107370000009917034281985116301_)}.st7{fill:url(#SVGID_00000067950052736073424040000014234308588161073594_)}.st8{fill:url(#SVGID_00000121959604037710985680000009296468659099543471_)}.st9{fill:url(#SVGID_00000148638554626124640880000014143371513839050374_)}.st10{fill:url(#SVGID_00000031910986712604917830000016429854722915999677_)}.st11{fill:url(#SVGID_00000168796445053013005160000018440866885640956302_)}.st12{fill:url(#SVGID_00000008829325627473237250000013656227968527678115_)}.st13{fill:url(#SVGID_00000161596638193364004700000008437512438779249558_)}.st14{fill:url(#SVGID_00000039114794525314363510000016721566117015888277_)}.st15{fill:url(#SVGID_00000031190307349845095620000003319590764789928380_)}.st16{fill:#2d2e83}.st17{fill:url(#SVGID_00000036944336072265910060000014986085071346084737_)}.st18{fill:url(#SVGID_00000123423564063825355540000007110441275333878664_)}.st19{fill:url(#SVGID_00000130632788800007176300000005329461876495270065_)}.st20{fill:#fff}.st21{fill:url(#SVGID_00000181088549032722721560000014474742738225458108_)}.st22{fill:url(#SVGID_00000141420441216886068040000010003209818936861610_)}.st23{fill:url(#SVGID_00000036930163563647111760000004126117228312603301_)}.st24{fill:url(#SVGID_00000060709109425788703510000012653482463139588494_)}.st25{fill:url(#SVGID_00000057869546049933172520000002379580972512756668_)}.st26{fill:url(#SVGID_00000148645220201895291730000002264791016212161465_)}.st27{fill:url(#SVGID_00000126294645452248371460000015053447834629086898_)}.st28{fill:url(#SVGID_00000112607166698244009720000017534250667617692576_)}.st29{fill:url(#SVGID_00000051374027971903283620000007023045753990077575_)}.st30{fill:url(#SVGID_00000127760528378567678810000005345813429839551387_)}.st31{fill:url(#SVGID_00000147178041287422186250000004028196379105394827_)}.st32{fill:url(#SVGID_00000106139759727769328990000003314485133915767741_)}.st33{fill:url(#SVGID_00000048468801515890179550000016856238744941537434_)}.st34{fill:url(#SVGID_00000181772141845422164140000018055620798465815743_)}.st35{fill:url(#SVGID_00000144318357551085204460000012980886385439949752_)}.st36{fill:url(#SVGID_00000036215470065261244390000002281810159681608084_)}.st37{fill:url(#SVGID_00000021822593251959670150000010413051786192809601_)}.st38{fill:url(#SVGID_00000111152649682040226960000002830389911258229153_)}.st39{fill:url(#SVGID_00000010292127855106059270000013394766891519944368_)}.st40{fill:url(#SVGID_00000173848856589294938270000007440853920838256800_)}.st41{fill:url(#SVGID_00000176030791461862811110000011379773572100863624_)}.st42{fill:url(#SVGID_00000162316259264394415910000008587701364177044157_)}.st43{fill:url(#SVGID_00000176729935571713405620000003233992429616001669_)}.st44{fill:url(#SVGID_00000044889227712172252510000005878662054930256809_)}.st45{fill:url(#SVGID_00000171719222051509407580000004580441807805365679_)}.st46{fill:url(#SVGID_00000078729884828027764700000015268853908312476293_)}.st47{fill:url(#SVGID_00000138532378162587304720000000654296666775707068_)}.st48{fill:url(#SVGID_00000005981013918706783050000004444549949913666490_)}.st49{fill:url(#SVGID_00000032637687307269270470000005832450489244483999_)}.st50{fill:url(#SVGID_00000089576391850526516860000004051238026978803128_)}.st51{fill:url(#SVGID_00000170249848618623001770000004064158130312802182_)}.st52{fill:url(#SVGID_00000006692860686388239250000012110607735872634757_)}.st53{fill:url(#SVGID_00000113333085777525205800000004418786558524113586_)}.st54{fill:url(#SVGID_00000056397181545645214680000014911212526029381050_)}.st55{fill:url(#SVGID_00000114036366500820517650000012595481388082926213_)}.st56{fill:url(#SVGID_00000121244913640070576330000011880275126030136216_)}.st57{fill:url(#SVGID_00000075122931639331432550000005288256513330900409_)}.st58{fill:url(#SVGID_00000004534350799570194850000017371635307040553355_)}.st59{fill:url(#SVGID_00000101073653511164843350000011732695309426803331_)}.st60{fill:url(#SVGID_00000182486064720145875990000004593685220376037547_)}.st61{fill:url(#SVGID_00000148639221674674808350000009299212410225188270_)}.st62{fill:url(#SVGID_00000069371992078981790030000004714237442094590864_)}.st63{fill:url(#SVGID_00000009588936415120083280000017591122399541612450_)}.st64{fill:url(#SVGID_00000024001222933460068490000015193551095281696138_)}.st65{fill:url(#SVGID_00000153686628526183665200000011797912177443070357_)}.st66{fill:url(#SVGID_00000030449371894957551580000011328598580537873083_)}.st67{fill:url(#SVGID_00000005984596345017254680000012634021409057827253_)}.st68{fill:url(#SVGID_00000106831511498683790330000014850979361685605271_)}.st69{fill:url(#SVGID_00000093159426077434214210000004848215824916663703_)}.st70{fill:url(#SVGID_00000082336006846801977110000003024857397546995866_)}.st71{fill:url(#SVGID_00000108304596817141793050000007180984191212771250_)}.st72{fill:url(#SVGID_00000134931281620361958690000007708713361534105525_)}.st73{fill:url(#SVGID_00000060714150098876538010000005521537025070943407_)}.st74{fill:url(#SVGID_00000012466677506243935850000014568818210612561854_)}.st75{fill:url(#SVGID_00000168105318169640890780000007949121542168231058_)}.st76{fill:url(#SVGID_00000023959715741312215590000017650394107641193624_)}.st77{fill:url(#SVGID_00000098208526769406654100000014271955387805081509_)}.st78{fill:url(#SVGID_00000183950664249380571630000016284184822800586147_)}.st79{fill:url(#SVGID_00000010992542853523470410000008521640159433347518_)}.st80{fill:url(#SVGID_00000127741146681390472060000010265856258594875045_)}.st81{fill:url(#SVGID_00000097481750569062739080000015046489457249148334_)}.st82{fill:url(#SVGID_00000029760531037280463030000004749777456211984045_)}.st83{fill:url(#SVGID_00000061453552048372190250000003276923522466676926_)}.st84{fill:url(#SVGID_00000041991235113496770200000007453559298391008410_)}.st85{fill:url(#SVGID_00000173128860642990770970000009535936160625096583_)}.st86{fill:url(#SVGID_00000149350037579350584590000004086494616559508925_)}.st87{fill:url(#SVGID_00000064356314157412862740000009479013339033681041_)}.st88{fill:url(#SVGID_00000171679046065374007220000001542991077447644089_)}.st89{fill:url(#SVGID_00000011744259194975749810000013212745174471546002_)}.st90{fill:url(#SVGID_00000070085915568905546210000001457253605356090766_)}.st91{fill:url(#SVGID_00000126323053394809031100000012977524547100082091_)}.st92{fill:url(#SVGID_00000096043356989840075760000006653760088808420487_)}.st93{fill:url(#SVGID_00000160883061362658454710000017180296091957757087_)}.st94{fill:url(#SVGID_00000024716095342479318120000018383140763104788926_)}.st95{fill:url(#SVGID_00000109712520448890718450000008788839545253917593_)}.st96{fill:url(#SVGID_00000179648554893341945690000008867842094355213230_)}.st97{fill:url(#SVGID_00000155869238706510600790000002571701711576700607_)}.st98{fill:url(#SVGID_00000011022461802597588850000001718673435485760946_)}.st99{fill:url(#SVGID_00000022527136969878693770000017095004769907191961_)}.st100{fill:url(#SVGID_00000112621453780623097140000008342292843966122379_)}.st101{fill:url(#SVGID_00000110468005283784197680000000891381352297716097_)}.st102{fill:url(#SVGID_00000090974837535718733060000006587265583926596260_)}.st103{fill:url(#SVGID_00000042721197789896178680000009678165068131053740_)}.st104{fill:url(#SVGID_00000133491341626263710290000011501224365229964963_)}.st105{fill:url(#SVGID_00000090991252488145808120000007190221781909731461_)}.st106{fill:url(#SVGID_00000011739128130292171770000013762845515927372218_)}.st107{fill:url(#SVGID_00000076574833725212902150000013929494153111568827_)}.st108{fill:url(#SVGID_00000037690198126530403890000018374778085123715760_)}.st109{fill:url(#SVGID_00000078762867094805783300000003661196545935720847_)}.st110{fill:url(#SVGID_00000144318627414995886720000016421950757051374993_)}.st111{fill:url(#SVGID_00000024715020202403528570000004268362505141504391_)}.st112{fill:url(#SVGID_00000042738809734171505510000008331092232043132586_)}.st113{fill:url(#SVGID_00000146459605748823469920000015617308315291311285_)}.st114{fill:url(#SVGID_00000018952472571982272090000012645330571600517034_)}.st115{fill:url(#SVGID_00000058559089731004203490000003183968712308548993_)}.st116{fill:url(#SVGID_00000060737574393120950840000018135341714293588117_)}.st117{fill:url(#SVGID_00000152226644281131985280000000484449784671419295_)}.st118{fill:url(#SVGID_00000032638779806827127010000001502463249300599475_)}.st119{fill:url(#SVGID_00000168819320876374277800000011414301747745000599_)}.st120{fill:url(#SVGID_00000018933270819038705100000000830968781584435854_)}.st121{fill:url(#SVGID_00000131326672462129414120000008061045195556293022_)}.st122{fill:url(#SVGID_00000163785962559425067330000015037966449975510459_)}.st123{fill:url(#SVGID_00000119831418103542176050000008089879570481987993_)}.st124{fill:url(#SVGID_00000084531425311796388230000014415370843429823905_)}.st125{fill:url(#SVGID_00000031894734173674688550000017869737738272928648_)}</style>
    <radialGradient
       inkscape:collect="always"
       xlink:href="#gradient-1"
       id="radialGradient1"
       gradientUnits="userSpaceOnUse"
       cx="295.98001"
       cy="256.67499"
       r="151.62" />
  </defs>
  <linearGradient
     id="SVGID_00000059999192799306342730000008760398236409041284_"
     x1="363.00201"
     x2="297.19199"
     y1="149.659"
     y2="215.46899"
     gradientUnits="userSpaceOnUse"
     xlink:href="#gradient-1">
    <stop
       offset="0"
       style="stop-color:#22c55e;stop-opacity:1;"
       id="stop11" />
    <stop
       offset="0.199"
       style="stop-color:#22c55e;stop-opacity:1;"
       id="stop12" />
    <stop
       offset="0.27399999"
       style="stop-color:#22c55e;stop-opacity:1;"
       id="stop13" />
    <stop
       offset="0.27599999"
       style="stop-color:#22c55e;stop-opacity:1;"
       id="stop14" />
    <stop
       offset="0.38499999"
       style="stop-color:#22c55e;stop-opacity:1;"
       id="stop15" />
    <stop
       offset="0.49599999"
       style="stop-color:#16a34a;stop-opacity:1;"
       id="stop16" />
    <stop
       offset="0.611"
       style="stop-color:#15803d;stop-opacity:1;"
       id="stop17" />
    <stop
       offset="0.73100001"
       style="stop-color:#166534;stop-opacity:1;"
       id="stop18" />
    <stop
       offset="0.85699999"
       style="stop-color:#14532d;stop-opacity:1;"
       id="stop19" />
    <stop
       offset="1"
       style="stop-color:#052e16;stop-opacity:1;"
       id="stop20" />
    <stop
       offset="1"
       style="stop-color:#000"
       id="stop21" />
  </linearGradient>
  <linearGradient
     id="SVGID_00000178900972909462958910000009051235711144097448_"
     x1="259.298"
     x2="259.298"
     y1="260.802"
     y2="159.29601"
     gradientUnits="userSpaceOnUse">
    <stop
       offset="0"
       style="stop-color:#22c55e;stop-opacity:1;"
       id="stop22" />
    <stop
       offset="0"
       style="stop-color:#22c55e;stop-opacity:1;"
       id="stop23" />
    <stop
       offset="0"
       style="stop-color:#22c55e;stop-opacity:1;"
       id="stop24" />
    <stop
       offset="0.168"
       style="stop-color:#22c55e;stop-opacity:1;"
       id="stop25" />
    <stop
       offset="0.345"
       style="stop-color:#16a34a;stop-opacity:1;"
       id="stop26" />
    <stop
       offset="0.52600002"
       style="stop-color:#15803d;stop-opacity:1;"
       id="stop27" />
    <stop
       offset="0.71100003"
       style="stop-color:#166534;stop-opacity:1;"
       id="stop28" />
    <stop
       offset="0.89600003"
       style="stop-color:#14532d;stop-opacity:1;"
       id="stop29" />
    <stop
       offset="1"
       style="stop-color:#052e16;stop-opacity:1;"
       id="stop30" />
    <stop
       offset="1"
       style="stop-color:#000"
       id="stop31" />
  </linearGradient>
  <linearGradient
     id="SVGID_00000122706799847949774020000016074212445193468548_"
     x1="270.01001"
     x2="204.74899"
     y1="280.703"
     y2="215.442"
     gradientUnits="userSpaceOnUse">
    <stop
       offset="0"
       style="stop-color:#22c55e;stop-opacity:1;"
       id="stop32" />
    <stop
       offset="0"
       style="stop-color:#22c55e;stop-opacity:1;"
       id="stop33" />
    <stop
       offset="0"
       style="stop-color:#22c55e;stop-opacity:1;"
       id="stop34" />
    <stop
       offset="0.168"
       style="stop-color:#22c55e;stop-opacity:1;"
       id="stop35" />
    <stop
       offset="0.345"
       style="stop-color:#16a34a;stop-opacity:1;"
       id="stop36" />
    <stop
       offset="0.52600002"
       style="stop-color:#15803d;stop-opacity:1;"
       id="stop37" />
    <stop
       offset="0.71100003"
       style="stop-color:#166534;stop-opacity:1;"
       id="stop38" />
    <stop
       offset="0.89600003"
       style="stop-color:#14532d;stop-opacity:1;"
       id="stop39" />
    <stop
       offset="1"
       style="stop-color:#052e16;stop-opacity:1;"
       id="stop40" />
    <stop
       offset="1"
       style="stop-color:#000"
       id="stop41" />
  </linearGradient>
  <linearGradient
     id="SVGID_00000179614314225185885990000016866912764372311941_"
     x1="240.832"
     x2="240.832"
     y1="232.87601"
     y2="272.14401"
     gradientUnits="userSpaceOnUse">
    <stop
       offset="0"
       style="stop-color:#22c55e;stop-opacity:1;"
       id="stop42" />
    <stop
       offset="0"
       style="stop-color:#22c55e;stop-opacity:1;"
       id="stop43" />
    <stop
       offset="0"
       style="stop-color:#22c55e;stop-opacity:1;"
       id="stop44" />
    <stop
       offset="0"
       style="stop-color:#22c55e;stop-opacity:1;"
       id="stop45" />
    <stop
       offset="0"
       style="stop-color:#16a34a;stop-opacity:1;"
       id="stop46" />
    <stop
       offset="0"
       style="stop-color:#15803d;stop-opacity:1;"
       id="stop47" />
    <stop
       offset="0.99000001"
       style="stop-color:#166534;stop-opacity:1;"
       id="stop48" />
    <stop
       offset="0.991"
       style="stop-color:#14532d;stop-opacity:1;"
       id="stop49" />
    <stop
       offset="0.99299997"
       style="stop-color:#052e16;stop-opacity:1;"
       id="stop50" />
    <stop
       offset="0.99599999"
       style="stop-color:#16a34a;stop-opacity:1;"
       id="stop51" />
    <stop
       offset="0.99900001"
       style="stop-color:#15803d;stop-opacity:1;"
       id="stop52" />
    <stop
       offset="1"
       style="stop-color:#166534;stop-opacity:1;"
       id="stop53" />
    <stop
       offset="1"
       style="stop-color:#000"
       id="stop54" />
  </linearGradient>
  <linearGradient
     id="SVGID_00000068673769954282363400000003012600954906899129_"
     x1="352.87601"
     x2="352.87601"
     y1="228.263"
     y2="205.455"
     gradientUnits="userSpaceOnUse">
    <stop
       offset="0"
       style="stop-color:#22c55e;stop-opacity:1;"
       id="stop55" />
    <stop
       offset="0"
       style="stop-color:#22c55e;stop-opacity:1;"
       id="stop56" />
    <stop
       offset="0"
       style="stop-color:#22c55e;stop-opacity:1;"
       id="stop57" />
    <stop
       offset="0.168"
       style="stop-color:#22c55e;stop-opacity:1;"
       id="stop58" />
    <stop
       offset="0.345"
       style="stop-color:#16a34a;stop-opacity:1;"
       id="stop59" />
    <stop
       offset="0.52600002"
       style="stop-color:#15803d;stop-opacity:1;"
       id="stop60" />
    <stop
       offset="0.71100003"
       style="stop-color:#166534;stop-opacity:1;"
       id="stop61" />
    <stop
       offset="0.89600003"
       style="stop-color:#14532d;stop-opacity:1;"
       id="stop62" />
    <stop
       offset="1"
       style="stop-color:#052e16;stop-opacity:1;"
       id="stop63" />
    <stop
       offset="1"
       style="stop-color:#000"
       id="stop64" />
  </linearGradient>
  <linearGradient
     id="SVGID_00000161619493513365345940000005072667776190746769_"
     x1="352.327"
     x2="330.02802"
     y1="284.082"
     y2="284.082"
     gradientUnits="userSpaceOnUse">
    <stop
       offset="0"
       style="stop-color:#22c55e;stop-opacity:1;"
       id="stop65" />
    <stop
       offset="0"
       style="stop-color:#22c55e;stop-opacity:1;"
       id="stop66" />
    <stop
       offset="0"
       style="stop-color:#22c55e;stop-opacity:1;"
       id="stop67" />
    <stop
       offset="0.168"
       style="stop-color:#22c55e;stop-opacity:1;"
       id="stop68" />
    <stop
       offset="0.345"
       style="stop-color:#16a34a;stop-opacity:1;"
       id="stop69" />
    <stop
       offset="0.52600002"
       style="stop-color:#15803d;stop-opacity:1;"
       id="stop70" />
    <stop
       offset="0.71100003"
       style="stop-color:#166534;stop-opacity:1;"
       id="stop71" />
    <stop
       offset="0.89600003"
       style="stop-color:#14532d;stop-opacity:1;"
       id="stop72" />
    <stop
       offset="1"
       style="stop-color:#052e16;stop-opacity:1;"
       id="stop73" />
    <stop
       offset="1"
       style="stop-color:#000"
       id="stop74" />
  </linearGradient>
  <linearGradient
     id="SVGID_00000074416308095151799600000001418869165731539849_"
     x1="345.20801"
     x2="375.70401"
     y1="290.742"
     y2="290.742"
     gradientUnits="userSpaceOnUse">
    <stop
       offset="0"
       style="stop-color:#22c55e;stop-opacity:1;"
       id="stop75" />
    <stop
       offset="0"
       style="stop-color:#22c55e;stop-opacity:1;"
       id="stop76" />
    <stop
       offset="0"
       style="stop-color:#22c55e;stop-opacity:1;"
       id="stop77" />
    <stop
       offset="0.168"
       style="stop-color:#22c55e;stop-opacity:1;"
       id="stop78" />
    <stop
       offset="0.345"
       style="stop-color:#16a34a;stop-opacity:1;"
       id="stop79" />
    <stop
       offset="0.52600002"
       style="stop-color:#15803d;stop-opacity:1;"
       id="stop80" />
    <stop
       offset="0.71100003"
       style="stop-color:#166534;stop-opacity:1;"
       id="stop81" />
    <stop
       offset="0.89600003"
       style="stop-color:#14532d;stop-opacity:1;"
       id="stop82" />
    <stop
       offset="1"
       style="stop-color:#052e16;stop-opacity:1;"
       id="stop83" />
    <stop
       offset="1"
       style="stop-color:#000"
       id="stop84" />
  </linearGradient>
  <linearGradient
     id="SVGID_00000053525760923821175390000015935072234377269122_"
     x1="369.823"
     x2="420.72699"
     y1="291.677"
     y2="291.677"
     gradientUnits="userSpaceOnUse">
    <stop
       offset="0"
       style="stop-color:#22c55e;stop-opacity:1;"
       id="stop85" />
    <stop
       offset="0"
       style="stop-color:#22c55e;stop-opacity:1;"
       id="stop86" />
    <stop
       offset="0"
       style="stop-color:#22c55e;stop-opacity:1;"
       id="stop87" />
    <stop
       offset="0.168"
       style="stop-color:#22c55e;stop-opacity:1;"
       id="stop88" />
    <stop
       offset="0.345"
       style="stop-color:#16a34a;stop-opacity:1;"
       id="stop89" />
    <stop
       offset="0.52600002"
       style="stop-color:#15803d;stop-opacity:1;"
       id="stop90" />
    <stop
       offset="0.71100003"
       style="stop-color:#166534;stop-opacity:1;"
       id="stop91" />
    <stop
       offset="0.89600003"
       style="stop-color:#14532d;stop-opacity:1;"
       id="stop92" />
    <stop
       offset="1"
       style="stop-color:#052e16;stop-opacity:1;"
       id="stop93" />
    <stop
       offset="1"
       style="stop-color:#000"
       id="stop94" />
  </linearGradient>
  <linearGradient
     id="SVGID_00000183217094450174259810000006944341485211823519_"
     x1="311.09399"
     x2="387.34299"
     y1="210.541"
     y2="210.541"
     gradientUnits="userSpaceOnUse">
    <stop
       offset="0"
       style="stop-color:#22c55e;stop-opacity:1;"
       id="stop95" />
    <stop
       offset="0"
       style="stop-color:#22c55e;stop-opacity:1;"
       id="stop96" />
    <stop
       offset="0"
       style="stop-color:#22c55e;stop-opacity:1;"
       id="stop97" />
    <stop
       offset="0.168"
       style="stop-color:#22c55e;stop-opacity:1;"
       id="stop98" />
    <stop
       offset="0.345"
       style="stop-color:#16a34a;stop-opacity:1;"
       id="stop99" />
    <stop
       offset="0.52600002"
       style="stop-color:#15803d;stop-opacity:1;"
       id="stop100" />
    <stop
       offset="0.71100003"
       style="stop-color:#166534;stop-opacity:1;"
       id="stop101" />
    <stop
       offset="0.89600003"
       style="stop-color:#14532d;stop-opacity:1;"
       id="stop102" />
    <stop
       offset="1"
       style="stop-color:#052e16;stop-opacity:1;"
       id="stop103" />
    <stop
       offset="1"
       style="stop-color:#000"
       id="stop104" />
  </linearGradient>
  <linearGradient
     id="SVGID_00000180341047446239554160000007684996401925858993_"
     x1="259.65201"
     x2="234.437"
     y1="231.411"
     y2="216.853"
     gradientUnits="userSpaceOnUse">
    <stop
       offset="0"
       style="stop-color:#22c55e;stop-opacity:1;"
       id="stop105" />
    <stop
       offset="0"
       style="stop-color:#22c55e;stop-opacity:1;"
       id="stop106" />
    <stop
       offset="0"
       style="stop-color:#22c55e;stop-opacity:1;"
       id="stop107" />
    <stop
       offset="0.168"
       style="stop-color:#22c55e;stop-opacity:1;"
       id="stop108" />
    <stop
       offset="0.345"
       style="stop-color:#16a34a;stop-opacity:1;"
       id="stop109" />
    <stop
       offset="0.52600002"
       style="stop-color:#15803d;stop-opacity:1;"
       id="stop110" />
    <stop
       offset="0.71100003"
       style="stop-color:#166534;stop-opacity:1;"
       id="stop111" />
    <stop
       offset="0.89600003"
       style="stop-color:#14532d;stop-opacity:1;"
       id="stop112" />
    <stop
       offset="1"
       style="stop-color:#052e16;stop-opacity:1;"
       id="stop113" />
    <stop
       offset="1"
       style="stop-color:#000"
       id="stop114" />
  </linearGradient>
  <linearGradient
     id="SVGID_00000148631763851842336190000005201555635607421829_"
     x1="262.952"
     x2="205.938"
     y1="297.5"
     y2="264.58301"
     gradientUnits="userSpaceOnUse">
    <stop
       offset="0"
       style="stop-color:#22c55e;stop-opacity:1;"
       id="stop115" />
    <stop
       offset="0"
       style="stop-color:#22c55e;stop-opacity:1;"
       id="stop116" />
    <stop
       offset="0"
       style="stop-color:#22c55e;stop-opacity:1;"
       id="stop117" />
    <stop
       offset="0.168"
       style="stop-color:#22c55e;stop-opacity:1;"
       id="stop118" />
    <stop
       offset="0.345"
       style="stop-color:#16a34a;stop-opacity:1;"
       id="stop119" />
    <stop
       offset="0.52600002"
       style="stop-color:#15803d;stop-opacity:1;"
       id="stop120" />
    <stop
       offset="0.71100003"
       style="stop-color:#166534;stop-opacity:1;"
       id="stop121" />
    <stop
       offset="0.89600003"
       style="stop-color:#14532d;stop-opacity:1;"
       id="stop122" />
    <stop
       offset="1"
       style="stop-color:#052e16;stop-opacity:1;"
       id="stop123" />
    <stop
       offset="1"
       style="stop-color:#000"
       id="stop124" />
  </linearGradient>
  <linearGradient
     id="SVGID_00000048463254383302484740000001044267687575528597_"
     x1="173.41499"
     x2="224.957"
     y1="313.13501"
     y2="313.13501"
     gradientUnits="userSpaceOnUse">
    <stop
       offset="0"
       style="stop-color:#22c55e;stop-opacity:1;"
       id="stop125" />
    <stop
       offset="0"
       style="stop-color:#22c55e;stop-opacity:1;"
       id="stop126" />
    <stop
       offset="0"
       style="stop-color:#22c55e;stop-opacity:1;"
       id="stop127" />
    <stop
       offset="0.168"
       style="stop-color:#22c55e;stop-opacity:1;"
       id="stop128" />
    <stop
       offset="0.345"
       style="stop-color:#16a34a;stop-opacity:1;"
       id="stop129" />
    <stop
       offset="0.52600002"
       style="stop-color:#15803d;stop-opacity:1;"
       id="stop130" />
    <stop
       offset="0.71100003"
       style="stop-color:#166534;stop-opacity:1;"
       id="stop131" />
    <stop
       offset="0.89600003"
       style="stop-color:#14532d;stop-opacity:1;"
       id="stop132" />
    <stop
       offset="1"
       style="stop-color:#052e16;stop-opacity:1;"
       id="stop133" />
    <stop
       offset="1"
       style="stop-color:#000"
       id="stop134" />
  </linearGradient>
  <linearGradient
     id="SVGID_00000016776032776808079550000016798786234741143450_"
     x1="369.827"
     x2="391.20599"
     y1="335.509"
     y2="335.509"
     gradientUnits="userSpaceOnUse">
    <stop
       offset="0"
       style="stop-color:#22c55e;stop-opacity:1;"
       id="stop135" />
    <stop
       offset="0"
       style="stop-color:#22c55e;stop-opacity:1;"
       id="stop136" />
    <stop
       offset="0"
       style="stop-color:#22c55e;stop-opacity:1;"
       id="stop137" />
    <stop
       offset="0.168"
       style="stop-color:#22c55e;stop-opacity:1;"
       id="stop138" />
    <stop
       offset="0.345"
       style="stop-color:#16a34a;stop-opacity:1;"
       id="stop139" />
    <stop
       offset="0.52600002"
       style="stop-color:#15803d;stop-opacity:1;"
       id="stop140" />
    <stop
       offset="0.71100003"
       style="stop-color:#166534;stop-opacity:1;"
       id="stop141" />
    <stop
       offset="0.89600003"
       style="stop-color:#14532d;stop-opacity:1;"
       id="stop142" />
    <stop
       offset="1"
       style="stop-color:#052e16;stop-opacity:1;"
       id="stop143" />
    <stop
       offset="1"
       style="stop-color:#000"
       id="stop144" />
  </linearGradient>
  <linearGradient
     id="SVGID_00000099636731956821262480000005079463703359264169_"
     x1="440.814"
     x2="388.98099"
     y1="313.69101"
     y2="313.69101"
     gradientUnits="userSpaceOnUse">
    <stop
       offset="0"
       style="stop-color:#22c55e;stop-opacity:1;"
       id="stop145" />
    <stop
       offset="0"
       style="stop-color:#22c55e;stop-opacity:1;"
       id="stop146" />
    <stop
       offset="0"
       style="stop-color:#22c55e;stop-opacity:1;"
       id="stop147" />
    <stop
       offset="0.168"
       style="stop-color:#22c55e;stop-opacity:1;"
       id="stop148" />
    <stop
       offset="0.345"
       style="stop-color:#16a34a;stop-opacity:1;"
       id="stop149" />
    <stop
       offset="0.52600002"
       style="stop-color:#15803d;stop-opacity:1;"
       id="stop150" />
    <stop
       offset="0.71100003"
       style="stop-color:#166534;stop-opacity:1;"
       id="stop151" />
    <stop
       offset="0.89600003"
       style="stop-color:#14532d;stop-opacity:1;"
       id="stop152" />
    <stop
       offset="1"
       style="stop-color:#052e16;stop-opacity:1;"
       id="stop153" />
    <stop
       offset="1"
       style="stop-color:#000"
       id="stop154" />
  </linearGradient>
  <rect
     style="fill:#ffffff;stroke:none;stroke-width:1.88976;stroke-linecap:round;stroke-linejoin:round;paint-order:fill markers stroke"
     id="rect1"
     width="48"
     height="48"
     x="144.36"
     y="124.03"
     ry="4" />
  <g
     id="g1"
     transform="matrix(0.1206227,0,0,0.1206227,132.6581,117.06917)">
    <path
       d="m 447.27,257.11 c -0.44,0.77 -1.25,1.23 -2.14,1.23 H 320.42 v 66.27 h 35.27 c 1.36,0 2.46,1.1 2.46,2.46 v 21.82 c 0,1.36 -1.1,2.46 -2.46,2.46 H 238.24 c -1.36,0 -2.46,-1.1 -2.46,-2.46 v -21.17 c 0,-1.36 1.1,-2.46 2.46,-2.46 h 29.36 v -88.24 c 0,-0.79 0.38,-1.53 1.01,-1.99 l 6.86,-5 v -21.38 c 0,-0.72 0.32,-1.4 0.86,-1.87 l 6.04,-5.17 v -23.53 c 0,-1.36 1.1,-2.46 2.46,-2.46 1.36,0 2.46,1.1 2.46,2.46 v 9.89 l 6.78,-5.65 a 2.49,2.49 0 0 1 1.84,-0.56 c 0.66,0.07 1.26,0.4 1.67,0.93 l 7.22,9.19 c 0.34,0.43 0.53,0.97 0.53,1.53 v 8.55 l 6.31,4.35 c 0.67,0.46 1.06,1.22 1.06,2.03 v 21.29 a 5.55,5.55 0 0 1 -2.45,10.53 c -3.07,0 -5.56,-2.48 -5.56,-5.55 a 5.534,5.534 0 0 1 3.09,-4.97 v -20.01 l -6.31,-4.35 a 2.428,2.428 0 0 1 -1.06,-2.03 v -8.99 l -5.13,-6.52 -7.99,6.66 v 8.36 c 0,0.72 -0.32,1.41 -0.86,1.87 l -6.04,5.17 v 21.5 c 0,0.79 -0.37,1.53 -1.01,1.99 l -6.86,5 v 89.46 c 0,1.37 -1.09,2.46 -2.46,2.46 H 240.7 v 16.24 h 112.52 v -16.89 h -35.27 c -1.36,0 -2.46,-1.1 -2.46,-2.46 v -71.19 c 0,-1.36 1.1,-2.46 2.46,-2.46 h 122.91 l -72.17,-124.5 h -145.2 l -73.82,130.6 73.36,124.85 h 145.92 l 8.85,-14.77 H 239.51 c -0.2,0.4 -0.44,0.77 -0.73,1.11 -1,1.21 -2.53,1.98 -4.24,1.98 -3.07,0 -5.55,-2.49 -5.55,-5.56 a 5.55,5.55 0 0 1 10.53,-2.45 h 142.63 c 0.89,0 1.7,0.48 2.14,1.25 0.44,0.78 0.43,1.72 -0.03,2.48 l -11.8,19.68 a 2.45,2.45 0 0 1 -2.12,1.2 H 221.62 c -0.87,0 -1.67,-0.46 -2.12,-1.22 L 144.7,260.82 c -0.45,-0.76 -0.45,-1.69 -0.02,-2.46 l 75.23,-133.08 c 0.43,-0.77 1.25,-1.25 2.15,-1.25 h 148.06 c 0.88,0 1.69,0.47 2.14,1.23 l 75.01,129.42 c 0.44,0.73 0.44,1.67 0,2.43 z"
       style="fill:url(#radialGradient1);fill-rule:nonzero;paint-order:fill"
       id="path154" />
    <path
       d="m 414.32,235.34 a 5.55,5.55 0 0 1 -11.1,0 c 0,-1.11 0.32,-2.15 0.89,-3.01 L 354.29,148.28 H 231.02 c -1.36,0 -2.46,-1.1 -2.46,-2.46 0,-1.36 1.1,-2.46 2.46,-2.46 h 124.66 c 0.87,0 1.67,0.46 2.12,1.21 l 50.54,85.23 c 0.15,-0.01 0.29,-0.02 0.43,-0.02 3.07,0 5.55,2.49 5.55,5.56 z"
       style="fill:url(#SVGID_00000059999192799306342730000008760398236409041284_)"
       id="path155" />
    <path
       d="m 350.4,164.85 c 0,3.07 -2.49,5.55 -5.56,5.55 -2.18,0 -4.07,-1.26 -4.97,-3.09 H 227.51 l -54.73,92.29 c -0.45,0.77 -1.27,1.2 -2.12,1.2 -0.42,0 -0.86,-0.11 -1.25,-0.34 a 2.465,2.465 0 0 1 -0.87,-3.37 l 55.44,-93.5 c 0.45,-0.75 1.25,-1.2 2.13,-1.2 h 113.75 a 5.56,5.56 0 0 1 4.97,-3.09 c 3.08,0 5.57,2.48 5.57,5.55 z"
       style="fill:url(#SVGID_00000178900972909462958910000009051235711144097448_)"
       id="path156" />
    <path
       d="m 258.45,186.56 -0.44,18.87 c -0.03,1.36 -1.17,2.45 -2.52,2.4 a 2.45,2.45 0 0 1 -2.4,-2.51 l 0.38,-16.36 h -14.88 l -42.16,72.59 30.82,47.65 a 5.55,5.55 0 0 1 6.48,5.47 c 0,3.07 -2.48,5.56 -5.55,5.56 -3.07,0 -5.55,-2.49 -5.55,-5.56 0,-0.93 0.23,-1.8 0.63,-2.57 l -31.77,-49.15 c -0.5,-0.78 -0.53,-1.77 -0.07,-2.57 l 43.63,-75.13 c 0.44,-0.76 1.25,-1.22 2.13,-1.22 h 18.81 c 0.67,0 1.3,0.27 1.76,0.74 0.46,0.49 0.72,1.13 0.7,1.79 z"
       style="fill:url(#SVGID_00000122706799847949774020000016074212445193468548_)"
       id="path157" />
    <path
       d="m 257.11,266.58 a 5.56,5.56 0 0 1 -5.56,5.56 c -3.06,0 -5.55,-2.49 -5.55,-5.56 0,-0.89 0.21,-1.71 0.58,-2.45 l -21.49,-27.27 c -0.85,-1.06 -0.66,-2.61 0.4,-3.46 1.06,-0.84 2.62,-0.66 3.46,0.41 l 21.54,27.31 c 0.34,-0.06 0.7,-0.1 1.06,-0.1 3.07,0.01 5.56,2.5 5.56,5.56 z"
       style="fill:url(#SVGID_00000179614314225185885990000016866912764372311941_)"
       id="path158" />
    <path
       d="m 362.04,222.71 c 0,3.07 -2.49,5.55 -5.56,5.55 a 5.55,5.55 0 0 1 -4.98,-8 l -7.37,-10.97 a 2.4642747,2.4642747 0 1 1 4.09,-2.75 l 7.2,10.7 c 0.34,-0.06 0.71,-0.1 1.07,-0.1 3.06,0.01 5.55,2.5 5.55,5.57 z"
       style="fill:url(#SVGID_00000068673769954282363400000003012600954906899129_)"
       id="path159" />
    <path
       d="m 352.33,274.31 c 0,3.07 -2.48,5.56 -5.55,5.56 -0.16,0 -0.32,-0.01 -0.48,-0.03 l -11.73,18.42 c -0.46,0.74 -1.26,1.14 -2.08,1.14 -0.45,0 -0.91,-0.13 -1.32,-0.38 a 2.47,2.47 0 0 1 -0.76,-3.4 l 11.68,-18.34 c -0.55,-0.86 -0.87,-1.88 -0.87,-2.97 a 5.55,5.55 0 0 1 5.55,-5.55 c 3.08,0 5.56,2.49 5.56,5.55 z"
       style="fill:url(#SVGID_00000161619493513365345940000005072667776190746769_)"
       id="path160" />
    <path
       d="m 375.31,273.49 -19.65,30.11 a 5.552,5.552 0 0 1 -4.89,8.2 c -3.06,0 -5.55,-2.48 -5.55,-5.55 0,-3.07 2.49,-5.56 5.55,-5.56 0.3,0 0.58,0.02 0.87,0.07 l 19.55,-29.96 a 2.466,2.466 0 0 1 3.41,-0.71 c 1.13,0.73 1.44,2.26 0.71,3.4 z"
       style="fill:url(#SVGID_00000074416308095151799600000001418869165731539849_)"
       id="path161" />
    <path
       d="M 420.35,274.61 402.1,303.9 c 0.58,0.88 0.92,1.93 0.92,3.06 0,3.07 -2.48,5.56 -5.55,5.56 -3.07,0 -5.55,-2.49 -5.55,-5.56 a 5.55,5.55 0 0 1 5.55,-5.55 c 0.13,0 0.25,0 0.37,0.02 l 15.99,-25.67 h -19.27 l -20.2,31.79 a 2.46,2.46 0 0 1 -3.4,0.76 2.468,2.468 0 0 1 -0.76,-3.4 l 20.92,-32.93 c 0.45,-0.71 1.24,-1.14 2.08,-1.14 h 25.06 c 0.9,0 1.72,0.49 2.16,1.27 0.43,0.77 0.41,1.73 -0.07,2.5 z"
       style="fill:url(#SVGID_00000053525760923821175390000015935072234377269122_)"
       id="path162" />
    <path
       d="m 387,238.94 a 2.45,2.45 0 0 1 -2.12,1.2 h -55.11 c -1.36,0 -2.46,-1.1 -2.46,-2.46 V 209.8 c 0,-1.36 1.1,-2.46 2.46,-2.46 1.36,0 2.46,1.1 2.46,2.46 v 25.42 h 48.51 l -25.2,-46.25 h -33.92 a 5.537,5.537 0 0 1 -4.97,3.09 c -3.07,0 -5.55,-2.48 -5.55,-5.55 0,-3.07 2.48,-5.55 5.55,-5.55 2.19,0 4.08,1.26 4.97,3.09 h 35.37 c 0.91,0 1.73,0.49 2.17,1.28 l 27.88,51.18 c 0.41,0.75 0.41,1.68 -0.04,2.43 z"
       style="fill:url(#SVGID_00000183217094450174259810000006944341485211823519_)"
       id="path163" />
    <path
       d="m 256.04,237.29 c -0.44,0.34 -0.97,0.51 -1.5,0.51 -0.74,0 -1.47,-0.33 -1.95,-0.96 l -10.92,-14.22 a 5.552,5.552 0 0 1 -6.54,-5.47 5.55,5.55 0 0 1 11.1,0 c 0,0.91 -0.22,1.76 -0.61,2.52 l 10.87,14.17 c 0.83,1.08 0.63,2.62 -0.45,3.45 z"
       style="fill:url(#SVGID_00000180341047446239554160000007684996401925858993_)"
       id="path164" />
    <path
       d="m 254.47,311.69 c -0.42,0.3 -0.91,0.43 -1.39,0.43 -0.79,0 -1.56,-0.38 -2.04,-1.08 l -33.2,-48.92 c -0.3,0.05 -0.6,0.08 -0.91,0.08 -3.07,0 -5.56,-2.48 -5.56,-5.55 0,-3.07 2.49,-5.55 5.56,-5.55 a 5.55,5.55 0 0 1 4.9,8.16 l 33.28,49.02 c 0.78,1.12 0.49,2.66 -0.64,3.41 z"
       style="fill:url(#SVGID_00000148631763851842336190000005201555635607421829_)"
       id="path165" />
    <path
       d="m 223.77,352.96 a 2.466,2.466 0 0 1 -3.39,-0.83 l -41.75,-68.8 h -0.03 c -2.86,0 -5.19,-2.32 -5.19,-5.19 0,-2.87 2.32,-5.19 5.19,-5.19 2.87,0 5.19,2.32 5.19,5.19 0,1.04 -0.31,2.01 -0.84,2.83 l 41.65,68.61 c 0.7,1.16 0.34,2.68 -0.83,3.38 z"
       style="fill:url(#SVGID_00000048463254383302484740000001044267687575528597_)"
       id="path166" />
    <path
       d="m 391.21,326.39 a 5.544,5.544 0 0 1 -6.1,5.52 l -10.73,17.11 c -0.46,0.74 -1.27,1.15 -2.09,1.15 -0.44,0 -0.9,-0.12 -1.3,-0.37 a 2.465,2.465 0 0 1 -0.78,-3.4 l 10.72,-17.11 c -0.53,-0.85 -0.83,-1.84 -0.83,-2.9 0,-3.07 2.48,-5.55 5.55,-5.55 3.07,0 5.56,2.48 5.56,5.55 z"
       style="fill:url(#SVGID_00000016776032776808079550000016798786234741143450_)"
       id="path167" />
    <path
       d="m 440.46,276.66 -41.4,69.01 c 0.65,0.91 1.02,2.02 1.02,3.22 a 5.55,5.55 0 0 1 -11.1,0 c 0,-3.07 2.48,-5.56 5.55,-5.56 0.06,0 0.13,0 0.19,0.01 l 41.52,-69.2 c 0.7,-1.16 2.22,-1.55 3.38,-0.84 1.17,0.69 1.54,2.2 0.84,3.36 z"
       style="fill:url(#SVGID_00000099636731956821262480000005079463703359264169_)"
       id="path168" />
  </g>
</svg>
